
        <svg xmlns="http://www.w3.org/2000/svg" xmlns:xlink="http://www.w3.org/1999/xlink" version="1.1" width="3131.8025188968045" 
        height="571.3639194176474" viewBox="0 0 3131.8025188968045 571.3639194176474">
			
			<g transform="scale(6.590125944840223) translate(10, 10)">
				<defs id="SvgjsDefs1373"></defs><g id="SvgjsG1374" featureKey="sloganFeature-0" transform="matrix(1.44553056452585,0,0,1.44553056452585,-0.4047474827862471,37.268996823971854)" fill="#0c056d"><path d="M7.5 6.199999999999999 c1.7 4.56 4.04 10.64 5.56 13.9 c-0.64 -0.04 -1.2 -0.1 -1.76 -0.1 s-1.14 0.06 -1.7 0.1 c-0.42 -1.36 -0.88 -2.74 -1.38 -4.1 c-0.86 -0.02 -1.7 -0.04 -2.56 -0.04 c-0.7 0 -1.38 0.02 -2.08 0.04 c-0.54 1.36 -0.98 2.72 -1.36 4.1 c-0.32 -0.04 -0.62 -0.1 -0.94 -0.1 s-0.62 0.06 -1 0.1 c0.98 -2.22 3.98 -9.34 5.7 -13.9 c0.26 0.04 0.5 0.1 0.76 0.1 s0.5 -0.06 0.76 -0.1 z M4.1 14.82 l3.66 0 c-0.58 -1.62 -1.14 -3.2 -1.78 -4.76 c-0.68 1.56 -1.3 3.14 -1.88 4.76 z M29.72 14.559999999999999 l0 -1.14 c-1.02 -0.02 -2.02 -0.08 -3.04 -0.08 c-1 0 -2.02 0.04 -3.04 0.08 l0 1.14 c0 2.24 0.04 3.78 0.16 5.54 c-0.44 -0.04 -0.98 -0.1 -1.64 -0.1 s-1.2 0.06 -1.64 0.1 c0.12 -1.76 0.16 -3.3 0.16 -5.54 l0 -2.72 c0 -2.24 -0.04 -3.78 -0.16 -5.54 c0.44 0.04 0.98 0.1 1.64 0.1 s1.2 -0.06 1.64 -0.1 c-0.12 1.74 -0.16 3.28 -0.16 5.5 c0.68 0.02 1.64 0.04 3.06 0.04 s2.26 -0.02 3.02 -0.04 c0 -2.22 -0.04 -3.76 -0.16 -5.5 c0.44 0.04 0.98 0.1 1.64 0.1 s1.2 -0.06 1.64 -0.1 c-0.12 1.76 -0.16 3.3 -0.16 5.54 l0 2.72 c0 2.24 0.04 3.78 0.16 5.54 c-0.44 -0.04 -0.98 -0.1 -1.64 -0.1 s-1.2 0.06 -1.64 0.1 c0.12 -1.76 0.16 -3.3 0.16 -5.54 z M36.32 14.559999999999999 l0 -2.72 c0 -2.24 -0.04 -3.78 -0.16 -5.54 c0.44 0.04 0.98 0.1 1.64 0.1 s1.2 -0.06 1.64 -0.1 c-0.12 1.76 -0.16 3.3 -0.16 5.54 l0 2.72 c0 2.24 0.04 3.78 0.16 5.54 c-0.44 -0.04 -0.98 -0.1 -1.64 -0.1 s-1.2 0.06 -1.64 0.1 c0.12 -1.76 0.16 -3.3 0.16 -5.54 z M54.60000000000001 9.28 l-0.28 0 c-0.84 -1.2 -2.12 -2 -3.94 -2 c-2.48 0 -5.04 2.06 -5.04 6.26 c0 3.18 1.78 5.58 4.86 5.58 c0.68 0 1.86 -0.14 2.18 -0.36 c0.06 -0.32 0.06 -0.82 0.06 -1.4 c0 -2.16 -0.12 -3.06 -0.14 -3.44 c0.26 0.04 0.66 0.1 1.48 0.1 c0.96 0 1.36 -0.06 1.62 -0.1 c-0.1 0.42 -0.16 2.08 -0.16 3.36 c0 0.84 0.02 1.9 0.06 2.2 c-1.74 0.5 -3.58 0.88 -5.34 0.88 c-4.6 0 -7.9 -2.62 -7.9 -6.7 c0 -5.08 3.58 -7.62 8.28 -7.62 c2.02 0 3.38 0.44 4.82 1.2 c-0.22 0.68 -0.44 1.36 -0.56 2.04 z M67.5 14.559999999999999 l0 -1.14 c-1.02 -0.02 -2.02 -0.08 -3.04 -0.08 c-1 0 -2.02 0.04 -3.04 0.08 l0 1.14 c0 2.24 0.04 3.78 0.16 5.54 c-0.44 -0.04 -0.98 -0.1 -1.64 -0.1 s-1.2 0.06 -1.64 0.1 c0.12 -1.76 0.16 -3.3 0.16 -5.54 l0 -2.72 c0 -2.24 -0.04 -3.78 -0.16 -5.54 c0.44 0.04 0.98 0.1 1.64 0.1 s1.2 -0.06 1.64 -0.1 c-0.12 1.74 -0.16 3.28 -0.16 5.5 c0.68 0.02 1.64 0.04 3.06 0.04 s2.26 -0.02 3.02 -0.04 c0 -2.22 -0.04 -3.76 -0.16 -5.5 c0.44 0.04 0.98 0.1 1.64 0.1 s1.2 -0.06 1.64 -0.1 c-0.12 1.76 -0.16 3.3 -0.16 5.54 l0 2.72 c0 2.24 0.04 3.78 0.16 5.54 c-0.44 -0.04 -0.98 -0.1 -1.64 -0.1 s-1.2 0.06 -1.64 0.1 c0.12 -1.76 0.16 -3.3 0.16 -5.54 z M74.02000000000001 14.559999999999999 l0 -2.72 c0 -2.24 -0.04 -3.78 -0.16 -5.54 c0.44 0.04 0.98 0.1 1.64 0.1 s1.2 -0.06 1.64 -0.1 c-0.12 1.76 -0.16 3.3 -0.16 5.54 l0 2.72 c0 1.48 0.02 3 0.04 4.04 c1.5 0 3.04 -0.08 4.58 -0.26 c-0.04 0.28 -0.08 0.48 -0.08 0.9 s0.04 0.62 0.08 0.86 c-0.72 -0.02 -1.66 -0.1 -3.5 -0.1 c-3.26 0 -3.8 0.06 -4.24 0.1 c0.12 -1.76 0.16 -3.3 0.16 -5.54 z M89.26 12.3 l0.04 0 c1.08 -1.52 2.14 -4.04 3.02 -6 c0.3 0.04 0.6 0.1 0.92 0.1 s0.62 -0.06 0.96 -0.1 c-0.88 1.5 -2.9 5.14 -4.18 7.66 c0 0.64 -0.04 1.3 -0.04 1.96 c0 1.32 0.02 2.68 0.2 4.18 c-0.56 -0.04 -1.14 -0.1 -1.7 -0.1 s-1.14 0.06 -1.7 0.1 c0.06 -1.28 0.24 -2.62 0.24 -3.86 c0 -0.62 -0.02 -1.24 -0.04 -1.86 c-1.38 -2.66 -3.66 -6.94 -4.28 -8.08 c0.6 0.04 1.2 0.1 1.8 0.1 s1.18 -0.06 1.78 -0.1 c0.92 1.98 2.42 5.08 2.98 6 z M101.88000000000001 14.559999999999999 l0 -2.72 c0 -2.24 -0.04 -3.78 -0.16 -5.54 c0.44 0.04 0.98 0.1 1.64 0.1 s1.2 -0.06 1.64 -0.1 c-0.12 1.76 -0.16 3.3 -0.16 5.54 l0 2.72 c0 2.24 0.04 3.78 0.16 5.54 c-0.44 -0.04 -0.98 -0.1 -1.64 -0.1 s-1.2 0.06 -1.64 0.1 c0.12 -1.76 0.16 -3.3 0.16 -5.54 z M115.18 20.1 l-3.58 -6.36 l-0.18 0 l0 0.82 c0 2.24 0.04 3.78 0.16 5.54 c-0.44 -0.04 -0.98 -0.1 -1.64 -0.1 s-1.2 0.06 -1.64 0.1 c0.12 -1.76 0.16 -3.3 0.16 -5.54 l0 -2.72 c0 -2.24 -0.04 -3.78 -0.16 -5.54 c0.44 0.04 0.98 0.1 1.64 0.1 c0.72 0 1.58 -0.1 2.94 -0.1 c2.02 0 2.76 0.18 3.46 0.68 c0.8 0.58 1.3 1.46 1.3 2.64 c0 1.94 -1.12 3.18 -3.1 3.68 c1.28 2.26 2.8 4.54 4.26 6.8 c-0.6 -0.04 -1.2 -0.1 -1.8 -0.1 s-1.22 0.06 -1.82 0.1 z M114.58000000000001 10.06 c0 -2.36 -0.92 -2.62 -3.1 -2.62 c-0.04 1.82 -0.06 3.62 -0.06 5.44 c0.16 0.02 0.3 0.04 0.44 0.04 c1.76 0 2.72 -0.98 2.72 -2.86 z M127.4 20.1 l-3.58 -6.36 l-0.18 0 l0 0.82 c0 2.24 0.04 3.78 0.16 5.54 c-0.44 -0.04 -0.98 -0.1 -1.64 -0.1 s-1.2 0.06 -1.64 0.1 c0.12 -1.76 0.16 -3.3 0.16 -5.54 l0 -2.72 c0 -2.24 -0.04 -3.78 -0.16 -5.54 c0.44 0.04 0.98 0.1 1.64 0.1 c0.72 0 1.58 -0.1 2.94 -0.1 c2.02 0 2.76 0.18 3.46 0.68 c0.8 0.58 1.3 1.46 1.3 2.64 c0 1.94 -1.12 3.18 -3.1 3.68 c1.28 2.26 2.8 4.54 4.26 6.8 c-0.6 -0.04 -1.2 -0.1 -1.8 -0.1 s-1.22 0.06 -1.82 0.1 z M126.80000000000001 10.06 c0 -2.36 -0.92 -2.62 -3.1 -2.62 c-0.04 1.82 -0.06 3.62 -0.06 5.44 c0.16 0.02 0.3 0.04 0.44 0.04 c1.76 0 2.72 -0.98 2.72 -2.86 z M132.72 14.559999999999999 l0 -2.72 c0 -2.24 -0.04 -3.78 -0.16 -5.54 c1.18 0.02 2.38 0.1 3.56 0.1 c1.96 0 3.64 -0.04 4.18 -0.1 c-0.04 0.24 -0.08 0.48 -0.08 0.84 c0 0.42 0.04 0.6 0.08 0.9 c-1.52 -0.1 -3.92 -0.24 -4.52 -0.24 c-0.1 1.46 -0.1 2.9 -0.1 4.36 c1.74 -0.04 3.02 -0.08 4.54 -0.16 c-0.08 0.46 -0.1 0.64 -0.1 0.9 c0 0.22 0.04 0.4 0.1 0.82 c-1.52 -0.12 -3.02 -0.18 -4.54 -0.18 c0 0.84 -0.02 1.7 -0.02 2.56 c0 0.84 0.02 1.7 0.06 2.5 c1.5 0 3.04 -0.08 4.58 -0.26 c-0.04 0.28 -0.08 0.48 -0.08 0.9 s0.04 0.62 0.08 0.86 c-0.72 -0.02 -1.66 -0.1 -3.5 -0.1 c-3.26 0 -3.8 0.06 -4.24 0.1 c0.12 -1.76 0.16 -3.3 0.16 -5.54 z M148.66 16.34 c1.38 -3.34 2.74 -6.94 3.78 -10.04 c0.28 0.06 0.58 0.1 0.88 0.1 s0.6 -0.04 0.88 -0.1 c-1.32 3.14 -3.92 9.22 -5.48 13.8 c-0.3 -0.04 -0.58 -0.1 -0.88 -0.1 s-0.6 0.06 -0.88 0.1 c-1.24 -3.42 -4.12 -10.74 -5.42 -13.8 c0.62 0.06 1.22 0.1 1.8 0.1 s1.18 -0.04 1.76 -0.1 c0.9 2.98 2.34 6.7 3.56 10.04 z M156.06 14.559999999999999 l0 -2.72 c0 -2.24 -0.04 -3.78 -0.16 -5.54 c1.18 0.02 2.38 0.1 3.56 0.1 c1.96 0 3.64 -0.04 4.18 -0.1 c-0.04 0.24 -0.08 0.48 -0.08 0.84 c0 0.42 0.04 0.6 0.08 0.9 c-1.52 -0.1 -3.92 -0.24 -4.52 -0.24 c-0.1 1.46 -0.1 2.9 -0.1 4.36 c1.74 -0.04 3.02 -0.08 4.54 -0.16 c-0.08 0.46 -0.1 0.64 -0.1 0.9 c0 0.22 0.04 0.4 0.1 0.82 c-1.52 -0.12 -3.02 -0.18 -4.54 -0.18 c0 0.84 -0.02 1.7 -0.02 2.56 c0 0.84 0.02 1.7 0.06 2.5 c1.5 0 3.04 -0.08 4.58 -0.26 c-0.04 0.28 -0.08 0.48 -0.08 0.9 s0.04 0.62 0.08 0.86 c-0.72 -0.02 -1.66 -0.1 -3.5 -0.1 c-3.26 0 -3.8 0.06 -4.24 0.1 c0.12 -1.76 0.16 -3.3 0.16 -5.54 z M172.96 20.1 l-3.58 -6.36 l-0.18 0 l0 0.82 c0 2.24 0.04 3.78 0.16 5.54 c-0.44 -0.04 -0.98 -0.1 -1.64 -0.1 s-1.2 0.06 -1.64 0.1 c0.12 -1.76 0.16 -3.3 0.16 -5.54 l0 -2.72 c0 -2.24 -0.04 -3.78 -0.16 -5.54 c0.44 0.04 0.98 0.1 1.64 0.1 c0.72 0 1.58 -0.1 2.94 -0.1 c2.02 0 2.76 0.18 3.46 0.68 c0.8 0.58 1.3 1.46 1.3 2.64 c0 1.94 -1.12 3.18 -3.1 3.68 c1.28 2.26 2.8 4.54 4.26 6.8 c-0.6 -0.04 -1.2 -0.1 -1.8 -0.1 s-1.22 0.06 -1.82 0.1 z M172.36 10.06 c0 -2.36 -0.92 -2.62 -3.1 -2.62 c-0.04 1.82 -0.06 3.62 -0.06 5.44 c0.16 0.02 0.3 0.04 0.44 0.04 c1.76 0 2.72 -0.98 2.72 -2.86 z M184.18 6.199999999999999 c1.7 4.56 4.04 10.64 5.56 13.9 c-0.64 -0.04 -1.2 -0.1 -1.76 -0.1 s-1.14 0.06 -1.7 0.1 c-0.42 -1.36 -0.88 -2.74 -1.38 -4.1 c-0.86 -0.02 -1.7 -0.04 -2.56 -0.04 c-0.7 0 -1.38 0.02 -2.08 0.04 c-0.54 1.36 -0.98 2.72 -1.36 4.1 c-0.32 -0.04 -0.62 -0.1 -0.94 -0.1 s-0.62 0.06 -1 0.1 c0.98 -2.22 3.98 -9.34 5.7 -13.9 c0.26 0.04 0.5 0.1 0.76 0.1 s0.5 -0.06 0.76 -0.1 z M180.78 14.82 l3.66 0 c-0.58 -1.62 -1.14 -3.2 -1.78 -4.76 c-0.68 1.56 -1.3 3.14 -1.88 4.76 z M191.98000000000002 10.28 c0 -1.8 -0.08 -3.02 -0.1 -3.98 c0.3 0.06 0.6 0.1 0.9 0.1 s0.6 -0.04 0.9 -0.1 c2.88 3.18 5.74 6.34 8.68 9.52 c0 -3.18 0 -8.62 -0.14 -9.52 c0.3 0.06 0.6 0.1 0.9 0.1 s0.6 -0.04 0.9 -0.1 c-0.32 5.82 -0.32 8.48 -0.32 13.8 c-0.28 -0.06 -0.54 -0.1 -0.82 -0.1 s-0.54 0.04 -0.78 0.1 c-2.74 -3.24 -5.66 -6.48 -8.74 -9.72 c-0.04 1.5 -0.04 3.16 -0.04 4.66 c0 3.2 0.06 4.32 0.12 5.06 c-0.32 -0.06 -0.64 -0.1 -0.94 -0.1 s-0.62 0.04 -0.92 0.1 c0.1 -0.58 0.4 -5.74 0.4 -9.82 z M209.72 14.559999999999999 l0 -5 c0 -0.76 0 -1.48 -0.06 -1.76 c-0.78 0 -2.46 0.12 -3.66 0.26 c0.06 -0.3 0.1 -0.58 0.1 -0.88 s-0.04 -0.58 -0.1 -0.88 c1.82 0.06 2.72 0.1 5.2 0.1 s3.38 -0.04 5.08 -0.1 c-0.06 0.3 -0.1 0.58 -0.1 0.88 s0.04 0.58 0.1 0.88 c-1.08 -0.14 -2.76 -0.26 -3.56 -0.26 c-0.04 0.28 -0.04 1 -0.04 1.76 l0 5 c0 2.24 0.04 3.78 0.16 5.54 c-0.44 -0.04 -0.98 -0.1 -1.64 -0.1 s-1.2 0.06 -1.64 0.1 c0.12 -1.76 0.16 -3.3 0.16 -5.54 z M234.60000000000002 17.62 l0.26 0.16 c-0.22 0.56 -0.38 1.14 -0.44 1.7 c-1.06 0.56 -2.44 0.88 -4.08 0.88 c-4.64 0 -7.38 -2.9 -7.38 -6.68 c0 -5.52 3.74 -7.64 7.94 -7.64 c1.4 0 3.16 0.42 4.08 0.98 c-0.26 0.66 -0.4 1.36 -0.46 2.04 l-0.28 0 c-1 -1.24 -2.02 -1.78 -3.44 -1.78 c-2.14 0 -4.56 1.86 -4.56 6.1 c0 4.12 2.44 5.74 4.74 5.74 c1.28 0 2.76 -0.6 3.62 -1.5 z M246.42000000000002 14.559999999999999 l0 -1.14 c-1.02 -0.02 -2.02 -0.08 -3.04 -0.08 c-1 0 -2.02 0.04 -3.04 0.08 l0 1.14 c0 2.24 0.04 3.78 0.16 5.54 c-0.44 -0.04 -0.98 -0.1 -1.64 -0.1 s-1.2 0.06 -1.64 0.1 c0.12 -1.76 0.16 -3.3 0.16 -5.54 l0 -2.72 c0 -2.24 -0.04 -3.78 -0.16 -5.54 c0.44 0.04 0.98 0.1 1.64 0.1 s1.2 -0.06 1.64 -0.1 c-0.12 1.74 -0.16 3.28 -0.16 5.5 c0.68 0.02 1.64 0.04 3.06 0.04 s2.26 -0.02 3.02 -0.04 c0 -2.22 -0.04 -3.76 -0.16 -5.5 c0.44 0.04 0.98 0.1 1.64 0.1 s1.2 -0.06 1.64 -0.1 c-0.12 1.76 -0.16 3.3 -0.16 5.54 l0 2.72 c0 2.24 0.04 3.78 0.16 5.54 c-0.44 -0.04 -0.98 -0.1 -1.64 -0.1 s-1.2 0.06 -1.64 0.1 c0.12 -1.76 0.16 -3.3 0.16 -5.54 z M258.66 6.199999999999999 c1.7 4.56 4.04 10.64 5.56 13.9 c-0.64 -0.04 -1.2 -0.1 -1.76 -0.1 s-1.14 0.06 -1.7 0.1 c-0.42 -1.36 -0.88 -2.74 -1.38 -4.1 c-0.86 -0.02 -1.7 -0.04 -2.56 -0.04 c-0.7 0 -1.38 0.02 -2.08 0.04 c-0.54 1.36 -0.98 2.72 -1.36 4.1 c-0.32 -0.04 -0.62 -0.1 -0.94 -0.1 s-0.62 0.06 -1 0.1 c0.98 -2.22 3.98 -9.34 5.7 -13.9 c0.26 0.04 0.5 0.1 0.76 0.1 s0.5 -0.06 0.76 -0.1 z M255.26000000000002 14.82 l3.66 0 c-0.58 -1.62 -1.14 -3.2 -1.78 -4.76 c-0.68 1.56 -1.3 3.14 -1.88 4.76 z M268.64 14.559999999999999 l0 -5 c0 -0.76 0 -1.48 -0.06 -1.76 c-0.78 0 -2.46 0.12 -3.66 0.26 c0.06 -0.3 0.1 -0.58 0.1 -0.88 s-0.04 -0.58 -0.1 -0.88 c1.82 0.06 2.72 0.1 5.2 0.1 s3.38 -0.04 5.08 -0.1 c-0.06 0.3 -0.1 0.58 -0.1 0.88 s0.04 0.58 0.1 0.88 c-1.08 -0.14 -2.76 -0.26 -3.56 -0.26 c-0.04 0.28 -0.04 1 -0.04 1.76 l0 5 c0 2.24 0.04 3.78 0.16 5.54 c-0.44 -0.04 -0.98 -0.1 -1.64 -0.1 s-1.2 0.06 -1.64 0.1 c0.12 -1.76 0.16 -3.3 0.16 -5.54 z M277.4 14.559999999999999 l0 -2.72 c0 -2.24 -0.04 -3.78 -0.16 -5.54 c0.44 0.04 0.98 0.1 1.64 0.1 c1.14 0 2.46 -0.1 3.6 -0.1 c2.4 0 4.04 0.92 4.04 3.1 s-2.02 3.1 -3.26 3.3 l0 0.04 c1.22 0.06 3.6 0.94 3.6 3.36 c0 2.86 -2.28 4 -4.66 4 c-1.06 0 -1.94 -0.1 -2.94 -0.1 c-0.72 0 -1.58 0.06 -2.02 0.1 c0.12 -1.76 0.16 -3.3 0.16 -5.54 z M283.56 9.78 c0 -1.28 -0.56 -2.34 -2.14 -2.34 c-0.58 0 -0.72 0.02 -0.98 0.06 c-0.04 0.98 -0.08 2.1 -0.08 2.78 c0 0.72 0.02 1.36 0.02 2.04 l0.9 0 c1.14 0 2.28 -0.84 2.28 -2.54 z M283.7 16.240000000000002 c0 -1.86 -0.86 -2.78 -2.46 -2.78 c-0.36 0 -0.62 0.02 -0.86 0.02 c0 0.56 -0.02 1.12 -0.02 1.94 c0 1.26 0.04 2.8 0.04 3.5 c0.36 0.02 0.66 0.04 1.1 0.04 c1.18 0 2.2 -0.98 2.2 -2.72 z M288.54 13.2 c0 -3.94 3.04 -7.16 7.68 -7.16 c4.24 0 7.58 2.32 7.58 7.14 c0 3.96 -3.18 7.18 -7.64 7.18 c-4.22 0 -7.62 -2.16 -7.62 -7.16 z M300.52000000000004 12.76 c0 -3.46 -1.78 -5.58 -4.36 -5.58 c-2.74 0 -4.34 2.76 -4.34 6.2 c0 4.26 1.96 5.74 4.2 5.74 c2.4 0 4.5 -2 4.5 -6.36 z M308.64000000000004 14.559999999999999 l0 -5 c0 -0.76 0 -1.48 -0.06 -1.76 c-0.78 0 -2.46 0.12 -3.66 0.26 c0.06 -0.3 0.1 -0.58 0.1 -0.88 s-0.04 -0.58 -0.1 -0.88 c1.82 0.06 2.72 0.1 5.2 0.1 s3.38 -0.04 5.08 -0.1 c-0.06 0.3 -0.1 0.58 -0.1 0.88 s0.04 0.58 0.1 0.88 c-1.08 -0.14 -2.76 -0.26 -3.56 -0.26 c-0.04 0.28 -0.04 1 -0.04 1.76 l0 5 c0 2.24 0.04 3.78 0.16 5.54 c-0.44 -0.04 -0.98 -0.1 -1.64 -0.1 s-1.2 0.06 -1.64 0.1 c0.12 -1.76 0.16 -3.3 0.16 -5.54 z"></path></g><g id="SvgjsG1375" featureKey="nameLeftFeature-0" transform="matrix(1.125,0,0,1.125,169.08000057935715,-9)" fill="#0c056d"><path d="M-0.96 40 l5.64 -32 l6.08 0 c4.12 0 5.04 2.56 4.2 7.16 l-0.12 0.84 c-0.48 2.76 -1.52 4.92 -2.52 6.48 l-0.04 0.16 c1.28 1.24 1.76 3.68 1.24 7.92 l-0.24 1.28 c-1.32 5.64 -3.24 8.16 -7.36 8.16 l-6.88 0 z M6.28 21.6 l2.08 0 c1.12 0 2.16 -1.32 2.92 -5.6 l0.12 -0.84 c0.56 -3.08 0 -3.96 -1.2 -3.96 l-2.08 0 z M3.76 36 l2.88 0 c1.2 0 2.2 -1 2.92 -4.16 l0.24 -1.28 c0.68 -4.76 0 -5.76 -1.2 -5.76 l-2.88 0 z M14.64 40 l5.64 -32 l6.48 0 c4.12 0 5.08 2.52 4.24 7.36 c-0.8 4.36 -1.76 6.84 -3.2 8.04 l-0.04 0.24 c0.96 0.36 0.96 2.24 0.56 6.92 l-0.88 9.44 l-4 0 l1.16 -9.44 c0.56 -4.76 0 -5.76 -1.2 -5.76 l-2.08 0 l-2.68 15.2 l-4 0 z M21.88 21.6 l2.48 0 c1.4 0 2.04 -1.4 2.92 -6.24 c0.52 -3.16 0.12 -4.16 -1.08 -4.16 l-2.48 0 z M30.64 40 l5.64 -32 l4 0 l-5.64 32 l-4 0 z"></path></g><g id="SvgjsG1376" featureKey="inlineSymbolFeature-0" transform="matrix(0.4619085805934242,0,0,0.4619085805934242,216.6904570970329,-5.095429029671211)" fill="#0c056d"><path xmlns="http://www.w3.org/2000/svg" style="text-indent:0;text-transform:none;direction:ltr;block-progression:tb;baseline-shift:baseline;color:;enable-background:accumulate;" d="M 50 11.03125 L 48.375 13.84375 L 44.65625 20.3125 L 44.125 21.25 L 44.65625 22.1875 L 70.40625 66.78125 L 46.75 66.78125 L 45.65625 66.78125 L 45.125 67.71875 L 41.40625 74.21875 L 39.78125 77 L 43 77 L 84.875 77.03125 L 88.09375 77 L 86.46875 74.1875 L 51.625 13.84375 L 50 11.03125 z M 43.09375 23 L 41.46875 25.8125 L 6.625 86.1875 L 5 88.96875 L 8.25 88.96875 L 15.71875 88.96875 L 16.8125 88.96875 L 17.34375 88.03125 L 43.09375 43.4375 L 54.9375 63.90625 L 55.4375 64.84375 L 56.53125 64.84375 L 64 64.84375 L 67.25 64.84375 L 65.625 62.0625 L 44.71875 25.8125 L 43.09375 23 z M 42.96875 47.125 L 41.375 49.9375 L 20.4375 86.15625 L 18.8125 88.96875 L 22.0625 88.96875 L 91.78125 88.96875 L 95 88.96875 L 93.375 86.15625 L 89.65625 79.6875 L 89.09375 78.75 L 88.03125 78.75 L 36.53125 78.75 L 48.34375 58.28125 L 48.875 57.34375 L 48.34375 56.40625 L 44.59375 49.9375 L 42.96875 47.125 z " fill="#0c056d" fill-opacity="1" fill-rule="nonzero" stroke="none" marker="none" visibility="visible" display="inline" overflow="visible"></path></g><g id="SvgjsG1377" featureKey="nameRightFeature-0" transform="matrix(1.125,0,0,1.125,267.08000004291534,-9)" fill="#0c056d"><path d="M-0.96 40 l5.64 -32 l3.6 0 l1.8 19.6 l0 -0.4 l3.4 -19.2 l4 0 l-5.64 32 l-3.6 0 l-2.12 -17.6 l-0.04 0.4 l-3.04 17.2 l-4 0 z"></path></g>
			</g>
		</svg>
	